<?xml version="1.0" encoding="utf-8"?>
<!-- Generator: Adobe Illustrator 21.1.0, SVG Export Plug-In . SVG Version: 6.00 Build 0)  -->
<svg version="1.1" id="Layer_1" xmlns="http://www.w3.org/2000/svg" xmlns:xlink="http://www.w3.org/1999/xlink" x="0px" y="0px"
	 viewBox="0 0 56.7 56.7" style="enable-background:new 0 0 56.7 56.7;" xml:space="preserve">
<style type="text/css">
	.st0{fill:none;stroke:#FF7D3C;stroke-width:1.44;stroke-miterlimit:22.9256;}
	.st1{fill:none;stroke:#FF7D3C;stroke-width:1.44;stroke-linecap:round;stroke-linejoin:round;stroke-miterlimit:22.9256;}
</style>
<circle class="st0" cx="28.3" cy="28.3" r="26.9"/>
<g>
	<path class="st1" d="M34.6,21.7v20.6c0,0.6-0.5,1.1-1.1,1.1H15.7c-0.6,0-1.1-0.5-1.1-1.1V15.7c0-0.6,0.5-1.1,1.1-1.1h11.9"/>
	<path class="st1" d="M34.6,21.7h-5.9c-0.6,0-1.1-0.5-1.1-1.1v-5.9L34.6,21.7L34.6,21.7z"/>
	<path class="st1" d="M38.4,18.3h3.8v20c0,4-3.8,4-3.8,0V18.3L38.4,18.3z"/>
	<polyline class="st1" points="44.7,29.1 44.7,21.7 38.5,21.7 	"/>
	<line class="st1" x1="40.2" y1="43.4" x2="40.2" y2="41.2"/>
	<line class="st1" x1="18.9" y1="21.7" x2="23.7" y2="21.7"/>
	<line class="st1" x1="18.9" y1="29.1" x2="30.2" y2="29.1"/>
	<line class="st1" x1="18.9" y1="32.3" x2="30.2" y2="32.3"/>
	<line class="st1" x1="18.9" y1="35.4" x2="30.2" y2="35.4"/>
</g>
</svg>
