<?xml version="1.0" encoding="utf-8"?>
<!-- Generator: Adobe Illustrator 21.0.2, SVG Export Plug-In . SVG Version: 6.00 Build 0)  -->
<svg version="1.1" id="Layer_1" xmlns="http://www.w3.org/2000/svg" xmlns:xlink="http://www.w3.org/1999/xlink" x="0px" y="0px"
	 viewBox="0 0 36 36" style="enable-background:new 0 0 36 36;" xml:space="preserve">
<style type="text/css">
	.st0{fill:#0076B3;}
	.st1{fill:#FFFFFF;}
</style>
<g>
	<g>
		<g>
			<path class="st0" d="M33.3,0H2.7C1.2,0,0,1.2,0,2.6v30.8C0,34.8,1.2,36,2.7,36h30.7c1.5,0,2.7-1.2,2.7-2.6V2.6
				C36,1.2,34.8,0,33.3,0z"/>
			<path class="st1" d="M5.3,13.5h5.3v17.2H5.3V13.5z M8,5c1.7,0,3.1,1.4,3.1,3.1c0,1.7-1.4,3.1-3.1,3.1c-1.7,0-3.1-1.4-3.1-3.1
				C4.9,6.3,6.3,5,8,5"/>
			<path class="st1" d="M14,13.5h5.1v2.3h0.1c0.7-1.4,2.5-2.8,5.1-2.8c5.4,0,6.4,3.6,6.4,8.2v9.4h-5.3v-8.4c0-2,0-4.6-2.8-4.6
				c-2.8,0-3.2,2.2-3.2,4.4v8.5H14V13.5z"/>
		</g>
	</g>
</g>
</svg>
