<?xml version="1.0" encoding="utf-8"?>
<!-- Generator: Adobe Illustrator 21.1.0, SVG Export Plug-In . SVG Version: 6.00 Build 0)  -->
<svg version="1.1" id="Layer_1" xmlns="http://www.w3.org/2000/svg" xmlns:xlink="http://www.w3.org/1999/xlink" x="0px" y="0px"
	 viewBox="0 0 56.7 56.7" style="enable-background:new 0 0 56.7 56.7;" xml:space="preserve">
<style type="text/css">
	.st0{fill:none;stroke:#FF7D3C;stroke-width:1.44;stroke-miterlimit:22.9256;}
	.st1{fill:none;stroke:#FF7D3C;stroke-width:1.44;stroke-linecap:round;stroke-linejoin:round;stroke-miterlimit:22.9256;}
</style>
<circle class="st0" cx="28.3" cy="28.3" r="26.9"/>
<g>
	<line class="st1" x1="12.6" y1="40.7" x2="44.1" y2="40.7"/>
	<polygon class="st1" points="14.3,31.8 18.5,31.8 18.5,40.6 14.3,40.6 14.3,31.8 	"/>
	<polygon class="st1" points="22.3,23.8 26.5,23.8 26.5,40.6 22.3,40.6 22.3,23.8 	"/>
	<polygon class="st1" points="30.2,30.9 34.4,30.9 34.4,40.6 30.2,40.6 30.2,30.9 	"/>
	<polygon class="st1" points="38.2,27.2 42.4,27.2 42.4,40.6 38.2,40.6 38.2,27.2 	"/>
	<path class="st0" d="M16.4,20.8c-1.3,0-2.4,1.1-2.4,2.4c0,1.3,1.1,2.4,2.4,2.4s2.4-1.1,2.4-2.4C18.9,21.9,17.8,20.8,16.4,20.8
		L16.4,20.8z M24.4,12.7c-1.3,0-2.4,1.1-2.4,2.4c0,1.3,1.1,2.4,2.4,2.4s2.4-1.1,2.4-2.4C26.8,13.8,25.7,12.7,24.4,12.7L24.4,12.7z
		 M32.3,20c-1.3,0-2.4,1.1-2.4,2.4c0,1.3,1.1,2.4,2.4,2.4c1.3,0,2.4-1.1,2.4-2.4C34.7,21,33.7,20,32.3,20L32.3,20z M40.3,16.3
		c-1.3,0-2.4,1.1-2.4,2.4c0,1.3,1.1,2.4,2.4,2.4c1.3,0,2.4-1.1,2.4-2.4C42.7,17.4,41.6,16.3,40.3,16.3L40.3,16.3z"/>
	<line class="st1" x1="18.6" y1="21" x2="22.3" y2="17.3"/>
	<line class="st1" x1="26.6" y1="17.1" x2="30.3" y2="20.6"/>
	<line class="st1" x1="34.7" y1="21.4" x2="37.6" y2="20"/>
</g>
</svg>
