<?xml version="1.0" encoding="utf-8"?>
<!-- Generator: Adobe Illustrator 21.1.0, SVG Export Plug-In . SVG Version: 6.00 Build 0)  -->
<svg version="1.1" id="Layer_1" xmlns="http://www.w3.org/2000/svg" xmlns:xlink="http://www.w3.org/1999/xlink" x="0px" y="0px"
	 viewBox="0 0 56.7 56.7" style="enable-background:new 0 0 56.7 56.7;" xml:space="preserve">
<style type="text/css">
	.st0{fill:none;stroke:#FF7D3C;stroke-width:1.44;stroke-linecap:round;stroke-linejoin:round;stroke-miterlimit:22.9256;}
	.st1{fill:none;stroke:#FF7D3C;stroke-width:1.44;stroke-miterlimit:22.9256;}
</style>
<path class="st0" d="M41.3,32.9l2.2-2.2c3.8-3.8,1.9-9-1.1-12.3c-1-1.1-2.2-2-3.4-2.7c-1.6-0.9-6.5-2.2-9.7,1l-6.7,6.6
	c-1.8,1.8,2.7,3.5,5,1.3l1.7-1.7c2.5-2.2,5.6,2.3,9.5-0.8"/>
<path class="st0" d="M15.4,31.8l-2.2-2.2c-7.4-7.4,5.4-20,12.9-12.7l1.5,1.5"/>
<path class="st0" d="M34.4,26l7.1,7.4c1.7,1.8-0.8,5.3-3.1,3l-4-4.1"/>
<path class="st0" d="M30.9,35.1l4.4,4.5c1.8,1.8,5.3-0.9,3.1-3.2L34.1,32"/>
<path class="st0" d="M30.4,40.7l1.5,1.6c1.8,1.8,5.3-0.8,3-3.1"/>
<path class="st1" d="M20.7,30l0.2,0.2c0.8,0.8,0.8,2.1,0,2.9l-3.1,3.1c-0.8,0.8-2.1,0.8-2.9,0L14.7,36c-0.8-0.8-0.8-2.1,0-2.9
	l3.1-3.1C18.6,29.2,19.9,29.2,20.7,30L20.7,30z"/>
<path class="st1" d="M25.8,31.4l0.2,0.2c0.8,0.8,0.8,2.1,0,2.9l-4.9,4.9c-0.8,0.8-2.1,0.8-2.9,0l-0.2-0.2c-0.8-0.8-0.8-2.1,0-2.9
	l4.9-4.9C23.7,30.6,25,30.6,25.8,31.4L25.8,31.4z"/>
<path class="st1" d="M27.8,35.9l0.2,0.2c0.8,0.8,0.8,2.1,0,2.9l-3.3,3.3c-0.8,0.8-2.1,0.8-2.9,0l-0.2-0.2c-0.8-0.8-0.8-2.1,0-2.9
	l3.3-3.3C25.7,35.1,27,35.1,27.8,35.9L27.8,35.9z"/>
<path class="st1" d="M30,40.3l0.2,0.2c0.8,0.8,0.8,2.1,0,2.9l-2,2c-0.8,0.8-2.1,0.8-2.9,0L25,45.2c-0.8-0.8-0.8-2.1,0-2.9l2-2
	C27.9,39.5,29.2,39.5,30,40.3L30,40.3z"/>
<circle class="st1" cx="28.3" cy="28.3" r="26.9"/>
</svg>
