<?xml version="1.0" encoding="utf-8"?>
<!-- Generator: Adobe Illustrator 21.1.0, SVG Export Plug-In . SVG Version: 6.00 Build 0)  -->
<svg version="1.1" id="Layer_1" xmlns="http://www.w3.org/2000/svg" xmlns:xlink="http://www.w3.org/1999/xlink" x="0px" y="0px"
	 viewBox="0 0 56.7 56.7" style="enable-background:new 0 0 56.7 56.7;" xml:space="preserve">
<style type="text/css">
	.st0{fill:none;stroke:#FF7D3C;stroke-width:1.44;stroke-miterlimit:22.9256;}
	.st1{fill:none;stroke:#FF7D3C;stroke-width:1.44;stroke-linecap:round;stroke-linejoin:round;stroke-miterlimit:22.9256;}
</style>
<circle class="st0" cx="28.3" cy="28.3" r="26.9"/>
<path class="st0" d="M20.5,28.7c-0.9,0-1.6,0.7-1.6,1.6c0,0.9,0.7,1.6,1.6,1.6c0.9,0,1.6-0.7,1.6-1.6C22.1,29.4,21.3,28.7,20.5,28.7
	L20.5,28.7z"/>
<path class="st0" d="M25.7,23.3c-0.9,0-1.6,0.7-1.6,1.6c0,0.9,0.7,1.6,1.6,1.6c0.9,0,1.6-0.7,1.6-1.6C27.3,24.1,26.6,23.3,25.7,23.3
	L25.7,23.3z"/>
<path class="st0" d="M31,28.1c-0.9,0-1.6,0.7-1.6,1.6c0,0.9,0.7,1.6,1.6,1.6c0.9,0,1.6-0.7,1.6-1.6C32.6,28.8,31.8,28.1,31,28.1
	L31,28.1z"/>
<line class="st1" x1="21.9" y1="28.8" x2="24.4" y2="26.4"/>
<line class="st1" x1="27.1" y1="26.3" x2="29.6" y2="28.5"/>
<polyline class="st1" points="33.5,22 37.4,21.2 32.1,28.6 "/>
<line class="st1" x1="37.4" y1="21.2" x2="37.8" y2="24.9"/>
<polyline class="st1" points="41.8,16.5 41.8,35.7 14.9,35.7 14.9,16.5 14.9,16.5 "/>
<line class="st1" x1="12.6" y1="16.4" x2="44.1" y2="16.4"/>
<line class="st1" x1="28.3" y1="35.7" x2="28.3" y2="44"/>
<line class="st1" x1="28.3" y1="16.4" x2="28.3" y2="14"/>
<line class="st1" x1="28.4" y1="40" x2="37.1" y2="45.5"/>
<line class="st1" x1="28.3" y1="40" x2="19.6" y2="45.5"/>
</svg>
