<?xml version="1.0" encoding="utf-8"?>
<!-- Generator: Adobe Illustrator 21.1.0, SVG Export Plug-In . SVG Version: 6.00 Build 0)  -->
<svg version="1.1" id="Layer_1" xmlns="http://www.w3.org/2000/svg" xmlns:xlink="http://www.w3.org/1999/xlink" x="0px" y="0px"
	 viewBox="0 0 56.7 56.7" style="enable-background:new 0 0 56.7 56.7;" xml:space="preserve">
<style type="text/css">
	.st0{fill:none;stroke:#FF7D3C;stroke-width:1.44;stroke-miterlimit:22.9256;}
	.st1{fill:none;stroke:#FF7D3C;stroke-width:1.44;stroke-linecap:round;stroke-linejoin:round;stroke-miterlimit:22.9256;}
</style>
<circle class="st0" cx="28.3" cy="28.3" r="26.9"/>
<g>
	<line class="st1" x1="15" y1="21.9" x2="25.9" y2="18"/>
	<line class="st1" x1="29.7" y1="16.6" x2="40.7" y2="12.6"/>
	<line class="st1" x1="27.9" y1="44" x2="27.9" y2="19.3"/>
	<line class="st1" x1="22.1" y1="44.1" x2="33.6" y2="44.1"/>
	<path class="st1" d="M27.9,15.5c1.1,0,1.9,0.9,1.9,1.9c0,1.1-0.9,1.9-1.9,1.9c-1.1,0-1.9-0.9-1.9-1.9C26,16.4,26.8,15.5,27.9,15.5
		L27.9,15.5z"/>
	<line class="st1" x1="12.6" y1="36.3" x2="23.8" y2="36.3"/>
	<path class="st1" d="M12.9,37.4c1.1,2,3,3.5,5.3,3.5c2.3,0,4.2-1.4,5.3-3.4c0.4-0.8,0.4-1.2,0.1-2.1L19,23.4
		c-0.1-0.2-0.2-0.4-0.4-0.5c-0.4-0.1-0.7,0.1-0.9,0.4l0,0c-1.6,4.7-3.3,7.3-4.9,12.1C12.5,36.2,12.5,36.7,12.9,37.4L12.9,37.4z"/>
	<line class="st1" x1="32" y1="29.2" x2="43.1" y2="29.2"/>
	<path class="st1" d="M32.3,30.3c1.1,2,3,3.5,5.3,3.5c2.3,0,4.2-1.4,5.3-3.4c0.4-0.8,0.4-1.2,0.1-2.1l-4.6-11.9
		c-0.1-0.2-0.2-0.4-0.4-0.5c-0.4-0.1-0.7,0.1-0.9,0.4l0,0c-1.6,4.7-3.3,7.3-4.9,12.1C31.9,29.2,31.9,29.6,32.3,30.3L32.3,30.3z"/>
</g>
</svg>
