<?xml version="1.0" encoding="utf-8"?>
<!-- Generator: Adobe Illustrator 21.1.0, SVG Export Plug-In . SVG Version: 6.00 Build 0)  -->
<svg version="1.1" id="Layer_1" xmlns="http://www.w3.org/2000/svg" xmlns:xlink="http://www.w3.org/1999/xlink" x="0px" y="0px"
	 viewBox="0 0 1133.9 226.8" style="enable-background:new 0 0 1133.9 226.8;" xml:space="preserve">
<style type="text/css">
	.st0{fill:url(#SVGID_1_);}
	.st1{fill:url(#SVGID_2_);}
	.st2{fill:url(#SVGID_3_);}
	.st3{fill:url(#SVGID_4_);}
</style>
<g>
	<path d="M80.8,59.7c-30.7,0-53.8,23-53.8,53.5c0,30.6,23.1,53.7,53.8,53.7c18.4,0,33.2-7.6,42.9-21.9l-14.9-10.3
		c-5,7.2-12.7,15.2-28,15.2c-19.6,0-33.9-15.5-33.9-36.7c0-21.4,13.9-36.4,33.9-36.4c11.2,0,20.5,4.8,26.4,13.5l14.6-10.4
		C112.5,66.1,99.4,59.7,80.8,59.7z"/>
	<path d="M189.2,59.5c-30.9,0-54.1,23.1-54.1,53.7c0,30.6,23.3,53.7,54.1,53.7c30.9,0,54.2-23.1,54.2-53.7
		C243.4,82.6,220.1,59.5,189.2,59.5z M189.2,149.9c-19.8,0-34.2-15.5-34.2-36.7s14.4-36.7,34.2-36.7c19.8,0,34.2,15.5,34.2,36.7
		S209,149.9,189.2,149.9z"/>
	<polygon points="525.9,60.5 445.4,60.5 445.4,77.1 476,77.1 476,165.5 495.3,165.5 495.3,77.1 525.9,77.1 	"/>
	<path d="M770.9,61h-31.6v104.5h31.6c32.4,0,55.1-21.5,55.1-52.3C825.9,82.4,803.3,61,770.9,61z M769.7,148.8h-11.2V77.6h11.2
		c22.9,0,36.1,13,36.1,35.6C805.9,135.9,792.7,148.8,769.7,148.8z"/>
	<polygon points="913.9,77.2 913.9,60.5 843.4,60.5 843.4,165.5 913.9,165.5 913.9,148.8 862.7,148.8 862.7,121.2 900.8,121.2 
		900.8,104.9 862.7,104.9 862.7,77.2 	"/>
	<path d="M434.2,98.1c0-24.2-16.5-37.6-46.6-37.6h-28.3v105h19.3v-29.8h9C417.6,135.7,434.2,122.3,434.2,98.1z M378.6,119V77.1h8.3
		c18.9,0,27.3,6.5,27.3,21c0,14.7-8.2,21-27.3,21H378.6z"/>
	<path d="M577.1,135.4l19.6,30.1H619l-22.5-33.9c14.8-5.7,22.1-17.3,22.1-33.5c0-24.2-16.5-37.6-46.6-37.6h-28.3v105H563v-29.8
		C563,135.7,573.8,135.8,577.1,135.4z M563,119V77.1h8.3c18.9,0,27.3,6.5,27.3,21c0,14.7-8.2,21-27.3,21H563z"/>
	<path d="M294.6,135.4l19.6,30.1h22.2l-22.5-33.9c14.8-5.7,22.1-17.3,22.1-33.5c0-24.2-16.5-37.6-46.6-37.6h-28.3v105h19.3v-29.8
		C280.5,135.7,291.2,135.8,294.6,135.4z M280.5,119V77.1h8.3c18.9,0,27.3,6.5,27.3,21c0,14.7-8.2,21-27.3,21H280.5z"/>
	<path d="M705,165.5h19.4L683.9,60h-5.3h-5.3l-40.5,105.5h19.4l6.5-18.1h39.9L705,165.5z M664.3,131.6l14.2-39.5l14.2,39.5H664.3z"
		/>
</g>
<g>
	<linearGradient id="SVGID_1_" gradientUnits="userSpaceOnUse" x1="1026.8663" y1="113.2205" x2="1108.1807" y2="113.2205">
		<stop  offset="0" style="stop-color:#001E32"/>
		<stop  offset="0.8758" style="stop-color:#6496B4"/>
	</linearGradient>
	<path class="st0" d="M1093,103c-20.1-10.8-43.9-13.5-66.1-7.1c5.6,3.7,9.3,10.1,9.3,17.3c0,7.2-3.7,13.6-9.3,17.4
		c22.2,6.4,46,3.7,66.1-7.1l15.2-10.2L1093,103z"/>
	<linearGradient id="SVGID_2_" gradientUnits="userSpaceOnUse" x1="994.637" y1="113.2082" x2="994.637" y2="113.2082">
		<stop  offset="0" style="stop-color:#001E32"/>
		<stop  offset="0.1802" style="stop-color:#113248"/>
		<stop  offset="0.5522" style="stop-color:#3B657F"/>
		<stop  offset="0.8758" style="stop-color:#6496B4"/>
	</linearGradient>
	<polygon class="st1" points="994.6,113.2 994.6,113.2 994.6,113.2 	"/>
</g>
<linearGradient id="SVGID_3_" gradientUnits="userSpaceOnUse" x1="963.4905" y1="65.0605" x2="1102.1549" y2="53.7246" gradientTransform="matrix(1 -5.697042e-03 5.697042e-03 1 1.0073 7.6557)">
	<stop  offset="0" style="stop-color:#FF783C"/>
	<stop  offset="0.9996" style="stop-color:#FFD2C8"/>
</linearGradient>
<path class="st2" d="M1093,103L967.7,18.4c-11.1,33.6-0.9,71.4,26.9,94.8c2.4-2,4.8-3.9,7.5-5.7C1030.1,88.6,1065.1,88,1093,103z"/>
<linearGradient id="SVGID_4_" gradientUnits="userSpaceOnUse" x1="963.1806" y1="-490.2681" x2="1112.7905" y2="-476.3196" gradientTransform="matrix(1 5.697042e-03 5.697042e-03 -1 1.0073 -333.3985)">
	<stop  offset="0" style="stop-color:#001E32"/>
	<stop  offset="7.841760e-02" style="stop-color:#0E2F44"/>
	<stop  offset="0.2769" style="stop-color:#2D536C"/>
	<stop  offset="0.4723" style="stop-color:#45718B"/>
	<stop  offset="0.661" style="stop-color:#5685A2"/>
	<stop  offset="0.8403" style="stop-color:#6092AF"/>
	<stop  offset="1" style="stop-color:#6496B4"/>
</linearGradient>
<path class="st3" d="M1002.1,118.9c-2.6-1.8-5.1-3.7-7.5-5.7c-27.8,23.4-38,61.2-26.9,94.8l125.3-84.6
	C1065.1,138.4,1030.1,137.8,1002.1,118.9z"/>
</svg>
