<?xml version="1.0" encoding="utf-8"?>
<!-- Generator: Adobe Illustrator 21.0.2, SVG Export Plug-In . SVG Version: 6.00 Build 0)  -->
<svg version="1.1" id="Lager_1" xmlns="http://www.w3.org/2000/svg" xmlns:xlink="http://www.w3.org/1999/xlink" x="0px" y="0px"
	 viewBox="0 0 234.2 306.6" style="enable-background:new 0 0 234.2 306.6;" xml:space="preserve">
<style type="text/css">
	.st0{clip-path:url(#SVGID_2_);fill:url(#SVGID_3_);}
	.st1{clip-path:url(#SVGID_5_);fill:url(#SVGID_6_);}
	.st2{clip-path:url(#SVGID_8_);fill:url(#SVGID_9_);}
</style>
<g>
	<defs>
		<path id="SVGID_1_" d="M50.6,153.3c3.8-3.2,7.8-6.4,12.1-9.2c45.3-30.6,101.9-31.5,147-7.3L7.1,0C-10.8,54.4,5.7,115.5,50.6,153.3
			"/>
	</defs>
	<clipPath id="SVGID_2_">
		<use xlink:href="#SVGID_1_"  style="overflow:visible;"/>
	</clipPath>
	
		<linearGradient id="SVGID_3_" gradientUnits="userSpaceOnUse" x1="-313.3244" y1="450.8161" x2="-312.3244" y2="450.8161" gradientTransform="matrix(224.1124 -19.6073 -19.6073 -224.1124 79062.1719 94975.1172)">
		<stop  offset="0" style="stop-color:#FF783C"/>
		<stop  offset="0.9996" style="stop-color:#FFD2C8"/>
		<stop  offset="1" style="stop-color:#FFD2C8"/>
	</linearGradient>
	<polygon class="st0" points="-24.1,1.2 208,-19.1 223,152.2 -9.1,172.5 	"/>
</g>
<g>
	<defs>
		<path id="SVGID_4_" d="M7.1,306.6L7.1,306.6l202.6-136.8c-45.1,24.2-101.6,23.3-147-7.3c-4.3-2.9-8.2-6-12.1-9.2
			C5.7,191.1-10.8,252.3,7.1,306.6"/>
	</defs>
	<clipPath id="SVGID_5_">
		<use xlink:href="#SVGID_4_"  style="overflow:visible;"/>
	</clipPath>
	
		<linearGradient id="SVGID_6_" gradientUnits="userSpaceOnUse" x1="-313.3183" y1="450.5135" x2="-312.3183" y2="450.5135" gradientTransform="matrix(242.0437 -21.1761 21.1761 242.0437 66294.0312 -115439.9297)">
		<stop  offset="0" style="stop-color:#001E32"/>
		<stop  offset="7.841796e-02" style="stop-color:#0E2F44"/>
		<stop  offset="0.2769" style="stop-color:#2D536C"/>
		<stop  offset="0.4723" style="stop-color:#45718B"/>
		<stop  offset="0.661" style="stop-color:#5685A2"/>
		<stop  offset="0.8403" style="stop-color:#6092AF"/>
		<stop  offset="1" style="stop-color:#6496B4"/>
	</linearGradient>
	<polygon class="st1" points="-9.1,325.8 223,305.5 208,134.2 -24.1,154.5 	"/>
</g>
<g>
	<defs>
		<path id="SVGID_7_" d="M102.8,125.3c9,6,15,16.4,15,28c0,11.7-6,22.1-15,28.1c35.9,10.4,74.4,5.9,106.9-11.5l24.5-16.6l-24.5-16.6
			c-20.9-11.2-44.2-17-67.7-17C128.9,119.8,115.7,121.6,102.8,125.3"/>
	</defs>
	<clipPath id="SVGID_8_">
		<use xlink:href="#SVGID_7_"  style="overflow:visible;"/>
	</clipPath>
	
		<linearGradient id="SVGID_9_" gradientUnits="userSpaceOnUse" x1="-313.4097" y1="450.9426" x2="-312.4097" y2="450.9426" gradientTransform="matrix(131.4854 0 0 -131.4854 41311.5469 59448.1289)">
		<stop  offset="0" style="stop-color:#001E32"/>
		<stop  offset="0.8758" style="stop-color:#6496B4"/>
		<stop  offset="1" style="stop-color:#6496B4"/>
	</linearGradient>
	<rect x="102.8" y="119.8" class="st2" width="131.5" height="72"/>
</g>
</svg>
